<?xml version="1.0" encoding="UTF-8" standalone="no"?>
<svg
   xmlns:dc="http://purl.org/dc/elements/1.1/"
   xmlns:cc="http://creativecommons.org/ns#"
   xmlns:rdf="http://www.w3.org/1999/02/22-rdf-syntax-ns#"
   xmlns:svg="http://www.w3.org/2000/svg"
   xmlns="http://www.w3.org/2000/svg"
   xmlns:sodipodi="http://sodipodi.sourceforge.net/DTD/sodipodi-0.dtd"
   xmlns:inkscape="http://www.inkscape.org/namespaces/inkscape"
   inkscape:version="1.0 (4035a4fb49, 2020-05-01)"
   sodipodi:docname="blue.svg"
   id="svg10"
   preserveAspectRatio="xMidYMid meet"
   viewBox="0 0 4500.000000 2813.000000"
   height="2813.000000pt"
   width="4500.000000pt"
   version="1.0">
  <metadata
     id="metadata16">
    <rdf:RDF>
      <cc:Work
         rdf:about="">
        <dc:format>image/svg+xml</dc:format>
        <dc:type
           rdf:resource="http://purl.org/dc/dcmitype/StillImage" />
        <dc:title></dc:title>
      </cc:Work>
    </rdf:RDF>
  </metadata>
  <defs
     id="defs14" />
  <sodipodi:namedview
     inkscape:current-layer="svg10"
     inkscape:window-maximized="1"
     inkscape:window-y="-8"
     inkscape:window-x="-8"
     inkscape:cy="3710.3163"
     inkscape:cx="4334.1613"
     inkscape:zoom="1.8101934"
     showgrid="false"
     id="namedview12"
     inkscape:window-height="1017"
     inkscape:window-width="1920"
     inkscape:pageshadow="2"
     inkscape:pageopacity="0"
     guidetolerance="10"
     gridtolerance="10"
     objecttolerance="10"
     borderopacity="1"
     bordercolor="#666666"
     pagecolor="#ffffff" />
  <g
     id="g8"
     stroke="none"
     fill="#000000"
     transform="translate(0.000000,2813.000000) scale(0.100000,-0.100000)">
    <path
       id="path2"
       d="M24215 2294 c-199 -30 -357 -79 -530 -164 -234 -115 -443 -292 -590 -501 -33 -47 -166 -276 -295 -509 -212 -384 -241 -431 -300 -491 -158 -159 -399 -196 -610 -91 -108 54 -156 115 -415 536 -213 346 -250 400 -329 483 -318 335 -796 417 -1206 207 -104 -53 -231 -152 -297 -232 -27 -32 -218 -295 -424 -583 -240 -336 -398 -548 -441 -591 -108 -109 -243 -162 -408 -161 -164 1 -307 60 -421 174 -100 99 -127 163 -199 469 -77 325 -104 385 -229 510 -140 140 -292 204 -486 204 -174 0 -334 -61 -457 -173 -80 -74 -89 -87 -318 -476 -101 -171 -202 -335 -226 -367 -119 -154 -298 -264 -497 -304 -98 -20 -312 -15 -402 10 -93 25 -233 97 -311 160 -100 80 -153 150 -304 406 -155 262 -189 308 -304 417 -317 300 -777 381 -1194 210 -223 -92 -418 -273 -552 -512 -97 -174 -240 -302 -409 -368 -106 -41 -191 -57 -309 -57 -243 0 -437 82 -598 252 -85 90 -128 163 -206 352 -31 77 -74 164 -94 194 -179 258 -566 289 -793 61 -84 -84 -114 -153 -176 -403 -33 -137 -65 -241 -85 -282 -107 -219 -384 -327 -624 -244 -71 24 -117 52 -175 105 -66 60 -93 106 -205 343 -56 119 -118 242 -137 272 -93 145 -245 262 -416 321 -95 32 -103 33 -253 34 -149 0 -159 -2 -250 -33 -131 -46 -221 -101 -315 -197 -111 -112 -123 -134 -282 -515 -127 -303 -369 -462 -682 -448 -218 11 -397 105 -516 272 -23 34 -140 245 -260 471 -119 226 -235 434 -257 463 -168 218 -478 285 -738 159 -89 -44 -214 -168 -256 -257 -18 -36 -98 -279 -179 -540 -92 -300 -160 -500 -183 -545 -73 -143 -231 -269 -394 -316 -61 -17 514 -18 15692 -17 9300 0 15733 4 15701 9 -133 22 -286 88 -401 172 -100 74 -162 148 -499 602 -184 248 -363 484 -397 525 -182 216 -445 362 -736 406 -289 45 -603 -28 -854 -196 -99 -67 -243 -211 -310 -310 -28 -41 -165 -271 -305 -510 -221 -379 -262 -443 -319 -500 -106 -106 -217 -150 -376 -150 -109 0 -190 22 -279 75 -137 83 -164 127 -341 555 -80 195 -165 392 -189 437 -145 274 -399 471 -715 554 -119 31 -340 38 -465 14 -168 -31 -308 -90 -445 -186 -41 -29 -149 -128 -240 -219 -126 -127 -189 -183 -266 -233 -166 -110 -336 -181 -535 -224 -121 -26 -468 -26 -589 1 -283 61 -537 196 -733 389 -51 50 -174 191 -272 312 -99 121 -208 251 -244 289 -171 178 -389 317 -629 400 -178 62 -272 77 -492 81 -107 2 -208 1 -225 -1z" />
    <path
       id="path4"
       d="M37357 1680 c-458 -83 -852 -362 -1082 -765 -23 -41 -68 -141 -100 -223 -94 -240 -181 -369 -330 -488 -117 -93 -312 -176 -460 -197 -16 -2 2140 -5 4793 -6 l4822 -1 0 79 0 79 -237 138 c-388 225 -831 491 -943 566 -91 60 -111 79 -149 138 -136 211 -357 370 -607 437 -88 24 -117 27 -264 27 -147 0 -176 -3 -265 -27 -317 -85 -546 -280 -708 -602 -116 -231 -293 -420 -512 -545 -422 -243 -948 -237 -1349 15 -46 29 -389 288 -762 577 -374 288 -707 543 -742 567 -139 94 -327 174 -512 218 -150 35 -435 42 -593 13z" />
    <path
       id="path6"
       d="M1760 1434 c-156 -24 -265 -63 -372 -133 -137 -90 -245 -222 -309 -376 -46 -111 -88 -173 -178 -257 -131 -123 -346 -267 -701 -469 l-200 -114 0 -42 0 -43 1678 0 1677 1 -71 23 c-130 42 -249 127 -327 234 -19 26 -115 202 -212 392 -98 190 -194 372 -213 405 -52 87 -191 221 -282 272 -150 84 -350 127 -490 107z" />
  </g>
  <path
     sodipodi:nodetypes="sssssss"
     transform="scale(0.74999999)"
     id="path875"
     d="m 4142.8482,3754.4593 c 18.5388,-7.6682 39.0005,-41.9559 73.0926,-101.0687 56.4216,-97.8299 94.8453,-127.5581 165.1887,-127.8054 65.9307,-0.2318 99.4687,13.271 168.0484,117.6943 62.4516,95.0924 165.1276,105.2736 165.1276,105.2736 7.7969,18.7833 -78.6783,5.2762 -323.801,5.0564 -141.3165,-0.1267 -254.5498,3.7011 -247.6563,0.8498 z"
     style="fill:#b0e0e6;stroke:#b0e0e6;stroke-width:30;stroke-miterlimit:4;stroke-dasharray:none;stroke-opacity:1" />
  <path
     sodipodi:nodetypes="csssssssssssssssssssssssssssssssssssssscc"
     transform="scale(0.74999999)"
     id="path877"
     d="m 530.04843,3725.542 c 11.43271,6.8245 21.92052,-12.3331 41.29025,-93.1182 14.90617,-62.169 25.68179,-74.4656 45.19675,-91.6 20.19382,-17.7304 26.08885,-19.7176 50.37135,-16.9807 36.57982,4.1231 49.3013,17.3537 92.43366,96.1326 41.66191,76.0931 57.7612,89.6056 106.80225,89.6416 46.25097,0.034 68.18195,-17.1067 97.09655,-75.8878 28.24215,-57.4141 50.06676,-75.3887 95.44246,-78.6059 48.1107,-3.4112 75.8102,15.1268 104.7514,70.1053 29.638,56.3021 47.6958,71.9117 83.1904,71.9117 39.9977,0 60.8421,-19.9508 74.8285,-71.6204 12.5773,-46.4643 36.1017,-72.1296 66.1129,-72.1296 31.927,0 48.4141,12.5697 68.7885,52.4438 10.7302,20.9997 24.2101,43.4913 29.9552,49.9813 26.4429,29.8711 100.133,38.8774 136.5272,16.6861 10.9072,-6.6507 30.9227,-27.0308 44.4788,-45.2892 13.5562,-18.2583 30.0475,-38.0116 36.6475,-43.8961 34.7472,-30.9807 108.6786,-39.6121 151.6258,-17.7021 29.5415,15.0709 48.9596,35.4441 83.3075,87.4049 35.7634,54.1021 51.7554,64.8163 101.4698,67.9819 60.6616,3.8626 85.0879,-12.706 130.214,-88.3254 41.1328,-68.9276 57.6001,-82.3357 101.1753,-82.379 54.0849,-0.054 75.7448,24.1935 97.1621,108.7689 13.4769,53.2197 62.2453,80.5239 110.8103,62.0399 18.6847,-7.1115 35.1186,-25.3389 86.6064,-96.0584 54.4148,-74.7398 68.2288,-89.7513 96.1348,-104.4691 38.5641,-20.3389 73.2662,-22.0261 109.2864,-5.3134 31.8933,14.7979 56.1317,41.3669 93.9373,102.9699 42.2357,68.8216 72.2895,84.8202 118.312,62.9811 15.7813,-7.4887 29.3089,-25.3928 59.8647,-79.2326 45.7113,-80.544 74.6128,-112.09 123.8362,-135.1677 29.6386,-13.8956 43.8196,-16.5251 88.4248,-16.3959 81.617,0.2365 104.2161,13.9936 206.25,125.5547 43.3522,47.4001 80.7129,65.9923 139.9701,69.6547 60.5798,3.7442 105.3307,-13.3225 155.2372,-59.203 65.9279,-60.6094 121.8412,-73.2326 184.9903,-41.7641 40.4558,20.16 43.2535,45.2547 88.7462,117.231 31.5195,49.8686 86.9975,87.0422 104.2472,88.5029 69.3296,5.8711 -39.168,14.0545 -1798.5054,5.5604 l -1915.34506,-5.3589 z"
     style="fill:#b0e0e6;stroke:#b0e0e6;stroke-width:30;stroke-miterlimit:4;stroke-dasharray:none;stroke-opacity:1" />
  <path
     transform="scale(0.74999999)"
     id="path879"
     d="m 4744.7299,3743.6464 c 38.8781,-14.4545 59.5405,-36.5846 80.4779,-86.1945 13.4479,-31.864 26.0486,-51.2821 46.6392,-71.8727 25.8965,-25.8965 55.556,-43.2511 91.9417,-53.7975 14.9091,-4.3214 22.0854,-4.9678 53.6705,-4.8341 33.7547,0.1428 37.8539,0.6132 55.2427,6.3391 35.5848,11.7176 48.0703,19.8581 148.1173,96.5719 99.9522,76.641 111.313,84.8088 128.5993,92.4553 39.8062,17.6082 94.549,18.3342 136.4989,1.8102 41.0289,-16.1611 71.2687,-44.797 96.7216,-91.591 17.9881,-33.0703 45.0524,-56.9192 77.8953,-68.6408 13.1078,-4.6782 21.6744,-6.0885 41.4461,-6.823 22.164,-0.8235 26.9341,-0.2954 43.0893,4.7698 31.8382,9.9826 51.0768,24.4802 81.3814,61.3267 6.2054,7.5449 22.8579,18.5754 75.1301,49.7653 36.9367,22.0395 73.8505,43.9156 82.0308,48.6136 14.6649,8.4221 14.8738,8.6733 14.9155,17.9331 l 0.042,9.3912 -633.634,-0.1151 -633.634,-0.1152 z"
     style="fill:#b0e0e6;stroke:#b0e0e6;stroke-width:30.00000007;stroke-miterlimit:4;stroke-dasharray:none;stroke-opacity:1" />
  <path
     sodipodi:nodetypes="ssssssscccs"
     transform="scale(0.74999999)"
     id="path881"
     d="m 0.68747286,3744.983 c 0.52972414,-3.6257 8.71004174,-9.4637 32.74689114,-23.3701 73.391356,-42.4603 95.192586,-60.6811 111.532256,-93.2153 21.00724,-41.8279 51.87678,-64.0993 93.83076,-67.696 18.25886,-1.5653 44.65341,4.917 61.64817,15.1404 21.98437,13.2248 32.19955,27.1156 62.23358,84.6264 30.94261,59.2507 40.25439,71.5664 62.5251,82.6952 l 26.59394,7.043 -232.54903,-0.3906 H -0.01864154 Z"
     style="fill:#b0e0e6;stroke:#b0e0e6;stroke-width:30;stroke-miterlimit:4;stroke-dasharray:none;stroke-opacity:1" />
</svg>
