<?xml version="1.0" encoding="UTF-8" standalone="no"?>
<svg
   xmlns:dc="http://purl.org/dc/elements/1.1/"
   xmlns:cc="http://creativecommons.org/ns#"
   xmlns:rdf="http://www.w3.org/1999/02/22-rdf-syntax-ns#"
   xmlns:svg="http://www.w3.org/2000/svg"
   xmlns="http://www.w3.org/2000/svg"
   xmlns:sodipodi="http://sodipodi.sourceforge.net/DTD/sodipodi-0.dtd"
   xmlns:inkscape="http://www.inkscape.org/namespaces/inkscape"
   inkscape:version="1.0 (4035a4fb49, 2020-05-01)"
   sodipodi:docname="wavy-dark.svg"
   id="svg11"
   version="1.1"
   fill="none"
   viewBox="0 0 1440 900"
   height="900"
   width="1440">
  <metadata
     id="metadata15">
    <rdf:RDF>
      <cc:Work
         rdf:about="">
        <dc:format>image/svg+xml</dc:format>
        <dc:type
           rdf:resource="http://purl.org/dc/dcmitype/StillImage" />
      </cc:Work>
    </rdf:RDF>
  </metadata>
  <sodipodi:namedview
     inkscape:current-layer="svg11"
     inkscape:window-maximized="1"
     inkscape:window-y="-8"
     inkscape:window-x="-8"
     inkscape:cy="893.55128"
     inkscape:cx="413.86237"
     inkscape:zoom="16.483445"
     showgrid="false"
     id="namedview13"
     inkscape:window-height="1017"
     inkscape:window-width="1920"
     inkscape:pageshadow="2"
     inkscape:pageopacity="0"
     guidetolerance="10"
     gridtolerance="10"
     objecttolerance="10"
     borderopacity="1"
     bordercolor="#666666"
     pagecolor="#ffffff" />
  <g
     id="g4"
     clip-path="url(#clip0)">
    <path
       id="path2"
       fill="#1D1E28"
       d="M1398.95 869.86C1385.33 846.02 1350.51 847.41 1338.82 872.25C1334.37 881.69 1344.37 860.44 1338.82 872.25C1327.41 896.49 1296.48 903.95 1275.28 887.56C1256.04 872.7 1250.53 868.44 1234.02 855.68C1207.13 834.9 1167.77 846.81 1156.92 879.01C1153.17 890.14 1161.35 865.86 1156.92 879.01C1149 902.51 1117.94 907.44 1103.14 887.55C1092.08 872.68 1093.8 875 1082.71 860.09C1066.16 837.85 1032.28 839.68 1018.22 863.58C1011.64 874.76 1011.7 874.66 1002.67 890.02C995.55 902.12 977.67 900.85 972.32 887.87C966.18 872.95 968.26 878 963.99 867.63C953.74 842.74 920.82 837.46 903.3 857.9C895.96 866.47 910.96 848.97 903.3 857.9C884.16 880.23 849.49 879.84 830.86 857.08C819.22 842.85 830.18 856.25 821.081 845.13C797.87 816.77 753.37 820.8 735.62 852.86C730.32 862.44 732.76 858.03 722.79 876.05C716.68 887.09 700.94 887.47 694.3 876.73C686.44 864.03 686.67 864.4 681.05 855.31C668.68 835.31 639.94 834.35 626.271 853.48C616.831 866.68 613.56 871.26 603.19 885.76C593.8 898.9 573.291 894.86 569.591 879.13C566.491 865.95 569.241 877.62 566.781 867.15C562.19 847.65 536.16 843.71 526 860.98C519.12 872.68 522.89 866.26 515.1 879.52C504.55 897.45 478.63 897.45 468.08 879.52C460.28 866.26 467.69 878.86 461.72 868.7C447.46 844.46 412.14 845.25 398.98 870.11C393.75 879.98 405 858.73 398.98 870.11C388.62 889.67 360.14 888.23 351.8 867.73C347.37 856.83 354.12 873.41 349.43 861.9C343.25 846.69 321.21 848.35 317.37 864.31C314.71 875.34 317.84 862.32 314.89 874.59C311.3 889.49 290.95 891.57 284.43 877.7C278.36 864.81 284.06 876.91 279.05 866.27C269.48 845.94 240.32 846.66 231.77 867.44C227.48 877.84 233.24 863.86 228.03 876.51C221 893.6 197.24 894.74 188.6 878.41C181.69 865.38 182.74 867.35 175.84 854.32C167.8 839.14 145.44 841.24 140.37 857.65C135.61 873.05 136.3 870.81 131.85 885.21C126.27 903.28 101.57 905.46 92.9105 888.64C85.1505 873.56 89.2405 881.51 82.4005 868.23C71.7405 847.51 41.4405 849.65 33.7905 871.67C25.4105 895.8 -92.4995 922.78 -126.02 1019.28C-26.1495 1019.28 574.23 1022.31 1675.11 1028.37C1492.57 925.44 1400.52 872.61 1398.95 869.86Z" />
  </g>
  <defs
     id="defs9">
    <clipPath
       id="clip0">
      <rect
         id="rect6"
         fill="white"
         height="900"
         width="1440" />
    </clipPath>
  </defs>
  <path
     id="path842"
     d="m 123.25862,897.19094 c 5.84924,-3.79272 7.75672,-7.38729 13.1259,-24.73526 5.89342,-19.04184 6.60163,-20.51076 11.65314,-24.17006 7.6161,-5.51707 17.41,-4.62765 23.86972,2.1677 1.6431,1.72847 6.14629,9.18021 10.00707,16.55942 3.86079,7.37921 8.0671,14.66161 9.34736,16.18311 3.63784,4.32333 9.72156,6.8003 16.7023,6.8003 10.90758,0 16.99837,-4.99802 22.97431,-18.8524 3.87578,-8.98543 7.80932,-13.50069 14.53672,-16.68647 9.07482,-4.29743 20.02893,-2.395 27.4942,4.77499 1.77507,1.70487 5.60059,7.68618 8.50115,13.2918 6.23862,12.05677 8.33116,13.88649 16.39736,14.33782 10.76867,0.60255 15.12936,-3.47757 18.87648,-17.66194 3.20133,-12.11836 8.14349,-17.05997 17.06186,-17.05997 7.72542,0 13.37947,4.64544 16.61904,13.65438 4.02139,11.18309 14.04958,18.36864 25.60515,18.34696 10.9327,-0.0205 17.17801,-3.97545 24.79911,-15.70445 8.27688,-12.73825 22.03434,-19.00041 35.79483,-16.2932 12.37838,2.43529 19.35581,8.07463 28.08102,22.69576 8.29933,13.90749 14.70871,18.24003 26.98357,18.24003 5.33056,0 7.8651,-0.53993 11.97606,-2.55124 6.64168,-3.24947 9.49591,-6.55689 17.81856,-20.64779 3.71342,-6.2871 7.77733,-12.3628 9.03092,-13.50155 9.79472,-8.89743 24.37003,-7.31698 32.35687,3.50857 1.23934,1.67984 3.23151,7.06669 4.42706,11.97079 2.35691,9.66808 4.534,14.77291 7.4091,17.37289 4.62803,4.18516 14.32802,5.90515 20.38866,3.61528 4.36606,-1.64961 7.4243,-5.16048 20.95814,-24.05997 7.01544,-9.7968 14.48601,-19.29374 16.60127,-21.10433 11.44363,-9.79531 29.32127,-9.53745 41.58839,0.59988 2.03353,1.68048 7.26202,8.88979 11.95187,16.47986 4.58531,7.42089 9.81979,14.7945 11.63217,16.38579 6.35957,5.58377 17.63503,4.6979 23.11626,-1.81617 1.27724,-1.51792 5.74124,-9.02137 9.92001,-16.67434 6.10312,-11.17723 8.94562,-15.26877 14.44942,-20.79875 11.10599,-11.15882 22.82049,-15.60474 38.76245,-14.71125 16.443,0.92157 27.06864,6.91479 39.88363,22.49575 9.86263,11.99135 14.35903,16.16478 21.11249,19.59593 7.3698,3.7443 13.72667,5.20194 22.74336,5.21508 14.31488,0.0209 25.32585,-4.96663 36.34633,-16.46331 6.46121,-6.74041 13.29165,-10.43664 21.31376,-11.53373 11.29612,-1.54484 20.85286,1.48399 29.1396,9.23527 5.47286,5.11922 7.38511,8.45311 13.55177,23.62665 5.10904,12.57119 6.95241,15.26703 12.00992,17.56387 5.3434,2.42668 10.90187,2.31156 16.14909,-0.33446 3.94613,-1.98992 5.25933,-3.73409 14.77663,-19.62632 5.7451,-9.59327 12.0787,-19.11808 14.0747,-21.16625 1.996,-2.04817 6.4592,-5.11918 9.9181,-6.82447 5.8659,-2.89194 6.9759,-3.10052 16.5014,-3.10052 17.3015,0 21.8263,3.10435 40.2833,27.63758 13.471,17.90576 16.8997,21.4972 23.3161,24.42208 3.7633,1.71557 -11.471,1.7706 -495.9645,1.79126 l -499.84713,0.0213 z"
     style="fill:#202225;fill-opacity:1;stroke:#202225;stroke-width:0;stroke-opacity:1" />
  <path
     id="path844"
     d="m 1139.9435,898.01006 c 6.5453,-2.3095 14.5801,-10.84898 17.4311,-18.52603 8.549,-23.02002 29.9519,-36.32884 53.1901,-33.07487 10.7616,1.50691 18.0586,5.79006 43.4375,25.4965 12.8129,9.94905 25.5289,19.16571 28.258,20.48147 21.3369,10.28734 45.1775,1.9982 57.1686,-19.87692 7.0096,-12.78745 16.6562,-18.83965 30.1036,-18.88688 6.8709,-0.0241 8.5474,0.34758 14.2663,3.16301 5.7756,2.8433 14.3481,10.53929 14.3481,12.881 0,0.79636 15.1847,10.29215 31.7895,19.87965 8.0141,4.62729 9.9494,6.17372 9.9494,7.95029 v 2.20558 l -152.1527,-0.0766 c -140.1599,-0.0706 -151.8087,-0.19798 -147.7895,-1.61617 z"
     style="fill:#202225;fill-opacity:1;stroke:#202225;stroke-width:0;stroke-opacity:1" />
  <path
     id="path846"
     d="m 122.27733,897.87267 c 6.13422,-3.74064 8.47272,-8.01825 14.3575,-26.26287 3.10347,-9.62169 6.4865,-18.56673 7.51784,-19.87788 1.03135,-1.31115 4.26453,-3.5529 7.18485,-4.98168 4.29597,-2.10182 6.10441,-2.47861 9.47242,-1.97354 8.66867,1.29995 11.90129,4.87749 22.66554,25.08401 3.48212,6.53661 7.24461,12.86368 8.36109,14.06016 7.38825,7.91771 23.00723,8.13933 31.18127,0.44243 1.52907,-1.43982 4.75059,-6.72446 7.15891,-11.74365 5.18454,-10.80509 10.43606,-16.55525 17.2355,-18.87205 13.94842,-4.75271 24.81766,1.04083 33.40547,17.8058 6.43877,12.56968 9.88816,15.53074 18.09209,15.53074 5.27802,0 10.39668,-2.17801 13.05196,-5.55366 1.03632,-1.31747 3.0231,-6.17608 4.41505,-10.79692 4.27913,-14.20534 8.57997,-18.59358 18.22323,-18.59358 6.62256,0 11.26483,3.93105 15.67363,13.27236 5.89101,12.48179 12.39078,17.64548 23.30147,18.51167 11.01094,0.87414 18.80477,-3.11202 25.57369,-13.07969 5.54163,-8.16042 10.50233,-12.70443 17.52001,-16.0484 5.27658,-2.51432 7.33344,-2.95005 14.07473,-2.98159 6.92806,-0.0324 8.68785,0.34336 14.36763,3.06802 7.30472,3.50417 13.22839,9.43923 18.90138,18.93773 8.82848,14.78185 15.05516,19.10288 27.47554,19.06676 12.53074,-0.0364 18.46525,-3.97883 26.78142,-17.79136 9.13956,-15.18014 12.36518,-19.41158 16.55464,-21.71678 9.90829,-5.45192 23.07258,-2.0332 28.35376,7.36338 1.15055,2.04713 3.13995,7.63823 4.42088,12.42467 1.28094,4.78644 3.04962,10.0962 3.93042,11.79948 3.98328,7.70282 16.449,11.25377 24.71062,7.03901 4.2998,-2.1936 4.70271,-2.67442 23.44395,-27.97805 7.15665,-9.6626 13.14334,-16.74183 15.44759,-18.26672 8.265,-5.46952 18.41684,-6.62882 28.45005,-3.24887 8.71112,2.93456 11.91959,6.02207 21.12226,20.3259 4.53789,7.0533 9.77951,14.51082 11.64805,16.57227 5.97984,6.5972 15.58453,7.36108 22.6523,1.80158 1.39207,-1.09502 5.00193,-6.44603 8.0219,-11.89114 11.69791,-21.09177 16.84882,-27.66814 26.92862,-34.38083 9.17871,-6.1126 17.75591,-8.35663 29.27223,-7.65841 16.52874,1.00212 25.28113,5.52487 37.88417,19.57646 17.2198,19.19895 21.45405,22.50126 33.39365,26.04373 2.89971,0.86034 8.59556,1.56425 12.65745,1.56425 14.25103,0 24.02559,-4.18176 35.80393,-15.31769 8.28156,-7.82988 13.09195,-10.6846 20.57704,-12.21142 16.21367,-3.30729 31.39609,4.45304 39.0342,19.95192 1.92224,3.90052 5.33373,11.38629 7.58107,16.63503 3.41922,7.98569 4.70639,9.95367 7.88681,12.05837 5.44783,3.6052 12.5506,4.01482 18.0944,1.04352 3.56278,-1.90954 5.41106,-4.19863 11.89076,-14.72696 4.2197,-6.85629 7.6902,-12.75312 7.7123,-13.10406 0.022,-0.35094 2.5336,-3.86185 5.5813,-7.80202 9.6667,-12.49748 19.6621,-16.63077 35.8403,-14.82076 13.2978,1.48776 17.742,5.12957 36.8964,30.23542 6.8024,8.91605 13.3513,16.42944 16.0751,18.44274 l 4.5963,3.39735 -13.8427,0.60603 c -7.6133,0.33331 -231.58824,0.65928 -497.72193,0.72437 -473.79,0.11588 -483.81711,0.0803 -480.89004,-1.70458 z"
     style="fill:#202225;fill-opacity:1;stroke:#202225;stroke-width:0;stroke-opacity:1" />
  <path
     id="path848"
     d="m 1145.3956,898.81168 -5.7154,-0.56483 3.9259,-2.19505 c 5.6846,-3.17837 9.4289,-7.92049 14.2677,-18.07003 10.0534,-21.08751 25.4802,-31.81496 45.6535,-31.74646 15.6879,0.0533 21.2423,2.99321 55.3283,29.28529 10.1435,7.82416 20.7181,15.37229 23.4992,16.77363 11.4132,5.75098 25.5929,5.65952 37.5542,-0.24221 7.4042,-3.65329 12.4769,-8.79698 20.2427,-20.52619 9.0784,-13.71176 15.9543,-17.66246 30.6397,-17.60486 10.6555,0.0418 17.8222,4.09219 28.0586,15.85803 1.1876,1.36499 9.05,6.55949 17.4721,11.54334 20.791,12.30329 23.5636,14.24305 23.5636,16.48581 0,1.8714 -1.7759,1.8927 -144.3873,1.73153 -79.413,-0.0897 -146.9593,-0.41735 -150.1028,-0.728 z"
     style="fill:#202225;fill-opacity:1;stroke:#202225;stroke-width:0;stroke-opacity:1" />
  <path
     id="path850"
     d="m 0.39194943,898.24685 c 0,-0.8008 0.34147804,-1.456 0.75884007,-1.456 1.4247374,0 21.5950675,-12.51209 26.0339375,-16.14941 2.838943,-2.3263 5.584904,-5.91376 7.652864,-9.9981 1.773869,-3.50348 4.468116,-7.54776 5.987215,-8.98727 4.542654,-4.30468 11.688121,-7.02194 18.292732,-6.95632 12.293971,0.12213 18.074605,5.02121 27.700934,23.47652 7.300313,13.99593 9.946925,17.54887 14.888028,19.98638 2.77083,1.36688 -1.4706,1.49791 -49.14099,1.51811 -45.7392076,0.0194 -52.17356057,-0.15747 -52.17356057,-1.43391 z"
     style="fill:#202225;fill-opacity:1;stroke:#202225;stroke-width:0;stroke-opacity:1" />
  <path
     id="path852"
     d="m 123.55363,896.76149 c 5.68774,-4.12017 7.11877,-6.91741 13.30665,-26.01045 6.26359,-19.32663 8.08963,-22.1348 16.18208,-24.8855 6.08032,-2.06677 10.51202,-1.57191 15.40985,1.72071 3.91836,2.63417 7.53713,7.99713 15.07564,22.34185 8.56027,16.28899 13.30293,20.07989 25.07301,20.04132 10.02069,-0.0328 15.77022,-4.76521 21.86418,-17.99617 4.42178,-9.60036 8.24595,-14.09034 14.7698,-17.34131 5.59975,-2.79047 12.05414,-3.24394 18.58164,-1.30548 5.46995,1.62439 11.93904,8.38289 16.51733,17.25627 6.93394,13.43896 10.38348,16.50141 18.58721,16.50141 9.32764,0 14.56128,-4.97062 17.44293,-16.56627 3.07628,-12.37883 8.51376,-18.37789 16.6575,-18.37789 8.58748,0 12.83487,3.37384 17.719,14.07473 3.3604,7.3625 6.83188,11.46497 12.54205,14.82177 3.96402,2.3303 5.5138,2.65031 12.8352,2.65031 7.57135,0 8.75721,-0.26609 13.07054,-2.93282 2.60905,-1.61304 6.06921,-4.74405 7.68925,-6.95778 1.62004,-2.21373 4.25594,-5.84766 5.85754,-8.07541 3.51667,-4.89148 10.40432,-10.11599 16.15484,-12.25398 2.51184,-0.93387 7.3826,-1.59918 11.99462,-1.63836 6.39954,-0.0544 8.73428,0.37876 13.27407,2.4625 7.39118,3.39252 13.49041,9.22409 18.96386,18.13163 9.81618,15.97497 14.35299,19.52905 25.86227,20.26019 12.47295,0.79236 19.93863,-2.96502 26.4849,-13.3295 15.99986,-25.33204 16.55425,-25.95715 25.10071,-28.3026 7.52495,-2.06511 18.53279,2.40449 22.73752,9.23231 1.0228,1.66085 2.80089,6.73255 3.95132,11.27043 1.15043,4.53789 2.8939,10.07537 3.87437,12.30551 4.7416,10.78499 22.04099,13.30971 30.29503,4.42133 1.35456,-1.45866 6.53514,-8.33053 11.5124,-15.27083 14.95,-20.84632 19.68026,-26.23355 25.56041,-29.11044 6.52034,-3.1901 14.32331,-4.05418 21.96549,-2.4324 11.09321,2.35414 14.75012,5.91601 29.13191,28.37483 8.75399,13.67035 14.3805,17.10745 23.5215,14.36874 5.58319,-1.67276 8.11621,-4.63563 16.21449,-18.9661 3.92202,-6.9403 8.77875,-14.85167 10.79273,-17.58083 14.99919,-20.32559 40.87727,-26.58162 63.68516,-15.3959 5.82526,2.85689 8.48485,5.06405 16.01607,13.29157 15.61839,17.06238 19.50512,20.64562 25.81355,23.79798 8.15632,4.07576 15.40127,5.45045 25.65042,4.86702 11.68844,-0.66535 19.92492,-4.61096 30.97337,-14.8375 10.57307,-9.78651 16.15148,-12.44506 27.05795,-12.89523 11.47454,-0.47362 17.53091,1.86035 25.64251,9.88196 5.05568,4.9996 6.69236,7.5216 10.16642,15.66563 7.67208,17.98525 9.67853,21.59889 13.20156,23.77624 6.78551,4.19368 14.89417,3.73189 20.47245,-1.16591 1.88967,-1.65918 6.87047,-8.81869 11.06837,-15.91002 12.7155,-21.47965 16.7186,-26.07047 26.7613,-30.69014 4.0564,-1.86599 6.3785,-2.20053 14.9919,-2.15996 17.5137,0.0825 21.9981,3.29089 42.5141,30.41687 6.8443,9.0494 13.155,16.32442 15.9979,18.44275 l 4.6949,3.49828 -11.4621,0.59639 c -6.3041,0.32802 -230.25602,0.65562 -497.67102,0.72801 l -486.20909,0.13161 z"
     style="fill:#202225;fill-opacity:1;stroke:#202225;stroke-width:0;stroke-opacity:1" />
  <path
     id="path854"
     d="m 123.38499,896.88366 c 5.60598,-4.06096 7.34817,-7.46654 13.49201,-26.3737 4.72642,-14.54517 5.99057,-17.40883 9.02643,-20.4474 5.57809,-5.58308 13.07376,-7.02217 20.05657,-3.85064 5.16376,2.34532 8.49397,6.53056 14.89859,18.72374 8.83994,16.8296 10.91423,19.62886 16.67091,22.49754 3.62683,1.80733 6.67015,2.56295 10.32245,2.56295 10.613,0 15.75856,-4.09867 22.5436,-17.95698 7.01258,-14.32305 13.64955,-19.65344 24.68489,-19.82534 11.0235,-0.17171 18.48898,5.25856 25.25337,18.3689 6.9295,13.43034 10.53339,16.51887 19.23626,16.48544 8.69971,-0.0334 14.50293,-6.05625 17.15452,-17.80366 2.50354,-11.09151 8.42195,-17.12453 16.79922,-17.12453 8.45149,0 11.91225,2.94062 17.75356,15.08521 2.20394,4.58217 4.85364,8.32511 7.49257,10.58395 9.36377,8.01503 24.41254,8.35089 33.54134,0.74857 1.74109,-1.44996 5.27509,-5.6939 7.85333,-9.43099 8.39679,-12.17094 17.81118,-17.40481 31.22419,-17.35887 13.75788,0.0471 22.03377,5.77271 33.49715,23.17468 9.47475,14.38314 14.78192,17.96563 26.6146,17.96563 12.38372,0 19.0687,-4.88537 28.61803,-20.91399 7.69418,-12.91476 10.69269,-16.61968 15.46635,-19.11002 8.38648,-4.3751 20.87498,-1.68627 26.51557,5.70892 1.55613,2.0402 3.64467,7.39033 5.36087,13.7327 1.54634,5.71469 3.8427,11.96009 5.10302,13.87866 4.57422,6.9633 15.93283,9.61171 23.81949,5.55384 3.63417,-1.86987 6.44459,-5.10131 16.72824,-19.2342 16.13818,-22.17883 20.89908,-27.21341 28.40795,-30.04105 8.085,-3.04458 18.76042,-2.40633 26.57201,1.58867 6.01617,3.07678 9.72804,7.50878 21.79696,26.02571 5.75662,8.83219 7.71413,11.06559 11.32729,12.92382 3.41186,1.7547 5.31713,2.12429 8.70381,1.6884 7.79838,-1.00371 10.36405,-3.64761 19.93098,-20.53869 12.67903,-22.38572 22.66371,-31.81447 37.8901,-35.78044 7.30515,-1.90275 18.83228,-1.90348 26.13385,-0.002 10.41104,2.71173 16.4442,6.75968 26.60232,17.84884 13.39088,14.6182 18.96321,19.83726 24.2553,22.71758 13.38037,7.28251 30.6566,7.32849 44.89317,0.11949 2.45706,-1.24419 8.13549,-5.63457 12.61872,-9.7564 10.58032,-9.72741 16.17396,-12.37706 27.07941,-12.82718 10.39528,-0.42907 17.15965,1.86993 24.24476,8.24006 5.91328,5.31654 8.09852,8.91691 14.49726,23.88547 5.85606,13.69906 7.15501,15.61967 12.282,18.16006 7.35391,3.64379 15.30181,2.02041 20.39289,-4.1653 1.5617,-1.89746 6.4955,-9.55408 10.9641,-17.01472 10.3918,-17.34979 14.8581,-22.46452 23.2012,-26.56967 6.1005,-3.00169 7.1196,-3.19643 16.7268,-3.19643 9.5911,0 10.6329,0.19815 16.6693,3.17036 6.6674,3.28285 12.5616,9.38956 24.5783,25.46443 9.6648,12.92873 14.4638,18.44311 18.3415,21.07576 l 3.9854,2.70568 -8.2507,0.63167 c -4.5379,0.34741 -228.57364,0.67501 -497.85717,0.728 l -489.60644,0.0963 z"
     style="fill:#202225;fill-opacity:1;stroke:#202225;stroke-width:0;stroke-opacity:1" />
  <path
     id="path856"
     d="m 123.38499,896.88366 c 5.42096,-3.92693 7.19663,-7.2818 12.37934,-23.38892 5.92524,-18.41481 7.04366,-20.91432 10.85604,-24.26163 5.56894,-4.8896 12.75447,-6.01211 19.33963,-3.02119 5.36345,2.43602 8.5141,6.54554 16.46067,21.47028 3.72172,6.9899 8.07717,14.06241 9.67878,15.71669 8.1583,8.42659 22.47739,8.87449 30.39649,0.9508 1.96735,-1.96848 5.64737,-7.78079 8.17786,-12.91624 6.67942,-13.55553 12.23494,-18.20258 22.83698,-19.10259 12.09473,-1.02672 19.87313,4.56852 27.86655,20.04527 5.4761,10.60274 9.02765,13.81487 16.01722,14.48647 3.5507,0.34118 5.82183,-0.0631 9.00176,-1.60251 4.94903,-2.39578 7.35243,-6.15118 10.32512,-16.13337 3.69155,-12.39607 8.24983,-16.97637 16.90151,-16.98311 8.31673,-0.006 12.26966,3.4346 18.05101,15.71365 6.29086,13.3612 18.86498,19.07496 32.68483,14.8522 6.00353,-1.83443 9.42918,-4.83219 16.25605,-14.22552 8.71363,-11.98942 16.98871,-16.54267 30.26966,-16.6555 6.49598,-0.0552 8.7174,0.36986 13.58939,2.60019 7.63287,3.49423 12.05059,7.84239 19.46046,19.15406 10.19953,15.57026 17.08605,19.9999 29.76306,19.14459 11.62069,-0.78403 16.96835,-5.22339 27.80476,-23.08213 3.88832,-6.40806 8.65257,-12.95577 10.58721,-14.55047 11.51507,-9.49169 29.65426,-3.40484 33.74763,11.32447 3.10885,11.18669 5.43283,18.00959 6.89379,20.23932 2.08811,3.18685 10.62762,7.22036 15.28651,7.22036 7.53002,0 11.53525,-3.02326 21.03592,-15.87851 23.334,-31.57301 25.73743,-34.06516 35.36394,-36.6692 6.30122,-1.70452 16.99944,-0.57233 23.18419,2.45359 6.33337,3.09862 9.61177,6.87981 21.25546,24.51522 7.30003,11.05655 9.01869,13.0493 12.85691,14.90736 3.51679,1.70245 5.3392,2.00849 8.83683,1.48399 6.59522,-0.98902 10.4065,-5.136 19.78591,-21.52865 15.16599,-26.50606 28.74384,-36.26009 50.47489,-36.26009 15.26674,0 26.06332,4.85227 37.46693,16.83865 20.94327,22.01353 21.98796,22.97613 28.10278,25.89446 13.97513,6.66971 30.30147,6.37558 43.4911,-0.78354 2.67247,-1.45057 8.33887,-5.82953 12.59202,-9.73102 4.25314,-3.9015 9.96171,-8.26645 12.68571,-9.6999 4.45835,-2.34612 5.9701,-2.60695 15.14477,-2.61309 9.1201,-0.006 10.75423,0.2693 15.53726,2.6184 10.36543,5.09078 14.41952,10.58636 23.25398,31.52224 4.77712,11.32078 8.13404,15.17416 14.75425,16.93627 5.82839,1.55134 11.61128,-0.0331 15.86205,-4.346 1.6574,-1.68164 6.9208,-9.56173 11.6965,-17.51132 10.7469,-17.88941 15.0638,-22.84549 23.5286,-27.01271 6.07,-2.98827 7.0985,-3.18436 16.7012,-3.18436 9.5861,0 10.6385,0.19968 16.6498,3.15903 7.2002,3.54466 11.2458,7.76039 25.8444,26.93177 10.4707,13.75024 12.0983,15.59509 17.1372,19.42421 l 3.8179,2.90122 -5.7592,0.62265 c -3.1676,0.34246 -227.17409,0.67006 -497.7923,0.72801 l -492.03311,0.10535 z"
     style="fill:#202225;fill-opacity:1;stroke:#202225;stroke-width:0;stroke-opacity:1" />
  <path
     id="path858"
     d="m 123.50055,896.79994 c 5.03422,-3.64677 7.45071,-8.42797 13.24643,-26.20911 5.14316,-15.77907 6.1474,-18.02825 9.40929,-21.07386 5.43955,-5.07888 13.0879,-6.35532 19.80373,-3.30505 5.28174,2.39891 8.44063,6.45668 15.94741,20.48533 7.36493,13.76357 11.49298,18.99735 16.93257,21.46809 4.48809,2.03856 11.3303,2.34583 16.16806,0.72609 6.27397,-2.10061 9.13812,-5.23114 14.91173,-16.29863 7.87906,-15.10347 12.82055,-19.34764 23.59101,-20.26194 11.26637,-0.9564 19.62014,4.35664 25.95853,16.50977 7.55439,14.48462 11.53901,18.24351 19.33915,18.24351 8.70211,0 13.89804,-4.98353 17.51887,-16.80273 4.1975,-13.70156 8.42116,-18.13089 17.29561,-18.1378 7.87747,-0.006 12.4772,3.50304 16.54839,12.62489 5.23196,11.72266 12.91585,18.04166 23.22257,19.09753 10.60729,1.08666 17.86173,-2.92575 26.63357,-14.73098 9.46997,-12.74475 17.39647,-17.18847 30.88035,-17.31199 6.78404,-0.0621 8.59951,0.31532 14.07472,2.92634 8.10951,3.86726 11.0648,6.73698 18.39647,17.86385 11.07673,16.81053 15.31371,19.78628 28.17241,19.78628 13.42751,0 18.22247,-3.67192 30.06424,-23.02285 3.83628,-6.26896 8.53507,-12.68401 10.44178,-14.25567 4.7683,-3.93044 11.58235,-5.47925 17.52902,-3.98428 10.49485,2.63838 14.12895,7.07288 18.5909,22.6855 1.65352,5.78574 3.7624,11.5438 4.68641,12.79569 3.91245,5.30078 13.26238,8.26824 20.18142,6.40513 5.13342,-1.38228 9.12846,-5.69356 24.57178,-26.51679 17.25569,-23.26697 20.36273,-25.52899 35.06582,-25.52899 8.13269,0 9.87419,0.32058 14.75088,2.71536 6.49249,3.18827 10.16167,7.33748 20.34561,23.00742 10.61942,16.34002 15.8001,19.97226 24.96613,17.50411 5.04524,-1.35854 9.20661,-6.13281 16.17925,-18.56217 8.05756,-14.36332 12.07332,-20.07781 18.11604,-25.7794 15.21829,-14.35919 39.00909,-17.1997 58.23411,-6.95287 4.27431,2.27818 9.30786,6.83127 20.19338,18.26587 15.60648,16.39371 20.61207,19.88795 31.83127,22.22043 16.53049,3.43669 30.27174,-0.85892 44.82098,-14.01137 4.51955,-4.08565 10.41444,-8.58524 13.09976,-9.99909 4.37853,-2.30535 5.93428,-2.57135 15.07446,-2.57746 9.13208,-0.006 10.75063,0.26753 15.56309,2.63104 8.06751,3.96213 13.71724,10.19521 18.08193,19.94893 8.03183,17.94862 11.42088,23.95889 14.75433,26.1658 6.95646,4.60553 15.56212,3.67597 21.18744,-2.28861 1.71695,-1.82051 7.27575,-10.219 12.35285,-18.66331 10.1333,-16.85397 14.8121,-22.02549 23.6935,-26.18895 4.8686,-2.28234 6.6929,-2.58238 15.7007,-2.58238 8.9504,0 10.8479,0.30759 15.5751,2.52483 7.8528,3.68327 11.4783,7.30133 24.3569,24.30668 6.3681,8.40857 14.1888,17.65065 17.3792,20.53795 l 5.8012,5.24963 -6.5615,0.61968 c -3.6087,0.34081 -227.53943,0.62277 -497.62377,0.62657 l -491.06244,0.007 z"
     style="fill:#202225;fill-opacity:1;stroke:#202225;stroke-width:0;stroke-opacity:1" />
  <path
     id="path860"
     d="m 123.29491,896.83999 c 5.12996,-3.77261 7.95719,-9.28286 13.46805,-26.24916 5.12168,-15.76814 6.12743,-18.02452 9.39331,-21.07386 5.43955,-5.07888 13.0879,-6.35532 19.80373,-3.30505 5.315,2.41401 8.33494,6.34397 16.86321,21.94468 4.363,7.98121 8.66163,14.5147 10.85134,16.49298 8.22324,7.4292 22.11704,6.89712 29.55813,-1.13195 1.3697,-1.47792 4.67178,-6.93393 7.33797,-12.12446 7.04964,-13.72419 12.39657,-18.16727 22.94013,-19.06231 10.91019,-0.92616 19.55515,4.3453 25.44172,15.51368 7.9999,15.17793 12.31854,19.2396 20.45691,19.2396 8.07192,0 13.38782,-5.2797 16.91792,-16.80273 4.1975,-13.70156 8.42116,-18.13089 17.29561,-18.1378 8.00949,-0.006 11.98799,3.13408 17.21193,13.58577 4.45301,8.90925 6.99864,11.9066 12.82646,15.10252 4.35724,2.38947 6.16075,2.79371 12.38025,2.77492 10.92145,-0.033 16.21087,-3.47504 25.67312,-16.70656 7.36591,-10.3001 16.81477,-15.13526 29.65513,-15.17509 6.14439,-0.0191 8.27766,0.44639 13.67539,2.98382 7.87003,3.69963 11.4989,7.25479 18.75756,18.37659 10.66866,16.34664 14.98897,19.34966 27.74864,19.28795 13.54871,-0.0655 17.60856,-3.18431 30.01345,-23.05643 3.9232,-6.28482 8.68762,-12.7083 10.58758,-14.27441 7.97072,-6.57014 20.66983,-5.69613 28.3147,1.94875 2.90842,2.90842 4.29124,5.47106 5.8719,10.88182 4.40713,15.086 5.14657,16.82792 8.63044,20.33093 6.6116,6.64792 17.40109,7.31362 24.0471,1.48367 1.9368,-1.69898 9.76948,-11.46663 17.40594,-21.70588 17.82959,-23.90654 21.2084,-26.55388 34.80425,-27.26951 6.20893,-0.32681 8.83542,-0.005 13.10406,1.607 7.98337,3.01429 11.82042,6.78731 20.80938,20.46217 10.24798,15.59021 13.18122,18.92441 18.40297,20.91862 3.49878,1.33619 4.87172,1.40892 8.44813,0.44749 6.00009,-1.61298 9.89561,-6.13129 18.82058,-21.82947 14.77957,-25.99585 28.21491,-35.41574 50.51254,-35.41574 17.09178,0 25.31539,4.44958 43.35094,23.45605 17.60781,18.55571 24.06416,22.51417 38.834,23.8096 13.96803,1.2251 25.65613,-3.27224 38.63583,-14.86628 4.53788,-4.05344 10.43471,-8.52124 13.10405,-9.92844 4.34743,-2.29184 5.91582,-2.55926 15.0454,-2.56537 9.1201,-0.006 10.75423,0.2693 15.53726,2.6184 10.08171,4.95144 14.20505,10.33177 22.40009,29.2287 5.2558,12.11935 7.98477,15.98418 12.84441,18.19053 5.12772,2.32806 8.81241,2.33091 13.92225,0.0108 4.41583,-2.00501 8.10243,-6.94753 20.02913,-26.85215 7.2342,-12.07328 12.7486,-17.77013 20.9,-21.59135 4.8686,-2.28234 6.6929,-2.58238 15.7007,-2.58238 8.9504,0 10.8479,0.30759 15.5751,2.52483 7.8154,3.66575 11.1878,7.03241 24.8096,24.76763 6.7277,8.75928 14.6062,18.04185 17.5077,20.62793 l 5.2755,4.70197 -5.1331,0.6165 c -2.8233,0.33908 -226.78703,0.6203 -497.69724,0.62494 l -492.56404,0.008 z"
     style="fill:#202225;stroke-width:0;fill-opacity:1;stroke:#ffffff;stroke-opacity:1" />
  <path
     id="path862"
     d="m 119.78447,899.29669 c 0,-0.22339 1.53267,-1.35341 3.40594,-2.51115 4.80658,-2.97064 7.56292,-8.25806 13.16682,-25.2576 5.47126,-16.5972 6.51728,-18.94681 9.79904,-22.01097 5.43955,-5.07888 13.0879,-6.35532 19.80373,-3.30505 5.24861,2.38386 8.32141,6.34166 16.43274,21.16558 3.73708,6.82973 8.54191,14.17571 10.67738,16.3244 8.28392,8.33519 22.13414,8.26745 29.96821,-0.14656 1.42391,-1.52931 4.60384,-6.67552 7.06652,-11.43602 7.58857,-14.6691 14.33719,-19.97934 25.39117,-19.97934 10.9835,0 17.56395,4.88763 25.20513,18.72108 5.66599,10.25761 10.07599,14.82924 15.23933,15.79789 9.76503,1.83193 16.05817,-3.2001 20.20389,-16.15513 4.49242,-14.03845 8.60006,-18.35329 17.47857,-18.36021 8.14077,-0.006 11.97672,3.10162 17.5112,14.18794 5.50763,11.03252 11.68573,15.9645 21.7009,17.32385 10.6598,1.44683 19.64876,-3.49184 27.56024,-15.14202 12.00612,-17.67978 33.39334,-22.22532 50.29985,-10.69047 4.21204,2.87376 7.01868,6.07427 12.53833,14.29788 11.79583,17.57438 15.2746,20.14965 27.34729,20.24471 13.99767,0.11022 18.80602,-3.46349 30.89541,-22.96242 3.87777,-6.25443 8.64355,-12.68483 10.59063,-14.28978 8.05922,-6.64309 20.71615,-5.80608 28.40036,1.87814 2.90842,2.90842 4.29124,5.47106 5.8719,10.88182 4.39987,15.06115 5.14974,16.83111 8.60111,20.30161 4.90844,4.93563 12.68369,6.71827 18.91803,4.33736 5.36441,-2.04869 7.7176,-4.63604 23.71098,-26.07039 16.5993,-22.24643 20.23098,-25.02265 33.65761,-25.72937 6.20893,-0.32681 8.83542,-0.005 13.10406,1.607 7.99703,3.01944 11.8749,6.83461 20.93313,20.59467 10.32115,15.67851 13.05987,18.79283 18.27922,20.78612 3.49878,1.33619 4.87172,1.40892 8.44813,0.44749 5.94445,-1.59802 9.68902,-5.94882 18.78438,-21.82552 14.92922,-26.06018 28.30355,-35.44091 50.48225,-35.40817 17.45386,0.0258 23.88843,3.52877 43.71892,23.80071 13.47706,13.77707 16.4068,16.28535 22.15589,18.96859 18.84728,8.79651 37.71854,5.12508 55.49778,-10.79718 4.27095,-3.82487 9.94938,-8.10869 12.61872,-9.5196 4.39621,-2.32365 5.85909,-2.56529 15.53074,-2.56529 10.02979,0 10.9938,0.17525 15.8945,2.88953 8.2358,4.56143 12.97686,10.09555 17.74336,20.7114 7.78918,17.34787 10.89247,22.83883 14.14446,25.02724 6.74856,4.54139 15.37012,3.71943 20.87858,-1.99053 1.7428,-1.80656 7.4193,-10.24582 12.6144,-18.75391 10.3428,-16.93846 15.0776,-22.14912 23.8725,-26.27202 4.8686,-2.28234 6.6929,-2.58238 15.7007,-2.58238 8.9504,0 10.8479,0.30759 15.5751,2.52483 7.8284,3.67183 11.2851,7.12124 24.9003,24.84795 6.7286,8.76035 14.5898,18.02779 17.4694,20.59431 l 5.2356,4.66639 -3.6834,0.6087 c -4.0174,0.66389 -991.34103,0.88687 -991.34103,0.22389 z"
     style="fill:#202225;fill-opacity:1;stroke:#202225;stroke-width:3;stroke-opacity:1;stroke-miterlimit:4;stroke-dasharray:none" />
</svg>
